<mxfile host="Electron" agent="Mozilla/5.0 (Windows NT 10.0; Win64; x64) AppleWebKit/537.36 (KHTML, like Gecko) draw.io/24.7.17 Chrome/128.0.6613.36 Electron/32.0.1 Safari/537.36" version="24.7.17">
  <diagram name="Sayfa -1" id="RXy0f1QvJkoid7I4KthN">
    <mxGraphModel dx="1195" dy="697" grid="1" gridSize="10" guides="1" tooltips="1" connect="1" arrows="1" fold="1" page="1" pageScale="1" pageWidth="827" pageHeight="1169" math="0" shadow="0">
      <root>
        <mxCell id="0" />
        <mxCell id="1" parent="0" />
        <mxCell id="jPJBBv1Qbxkllbum_l7b-1" value="&lt;u&gt;:Student&lt;/u&gt;" style="shape=umlActor;verticalLabelPosition=bottom;verticalAlign=top;html=1;outlineConnect=0;" vertex="1" parent="1">
          <mxGeometry x="121" y="40" width="30" height="60" as="geometry" />
        </mxCell>
        <mxCell id="jPJBBv1Qbxkllbum_l7b-2" value="&lt;u&gt;:System&lt;/u&gt;" style="whiteSpace=wrap;html=1;align=center;" vertex="1" parent="1">
          <mxGeometry x="321" y="100" width="100" height="30" as="geometry" />
        </mxCell>
        <mxCell id="jPJBBv1Qbxkllbum_l7b-3" value="" style="edgeStyle=none;orthogonalLoop=1;jettySize=auto;html=1;rounded=0;dashed=1;" edge="1" parent="1">
          <mxGeometry width="100" relative="1" as="geometry">
            <mxPoint x="371" y="230" as="sourcePoint" />
            <mxPoint x="150" y="230" as="targetPoint" />
            <Array as="points" />
          </mxGeometry>
        </mxCell>
        <mxCell id="jPJBBv1Qbxkllbum_l7b-4" value="IsAuthorized()" style="text;html=1;align=center;verticalAlign=middle;resizable=0;points=[];autosize=1;strokeColor=none;fillColor=none;" vertex="1" parent="1">
          <mxGeometry x="206" y="210" width="100" height="30" as="geometry" />
        </mxCell>
        <mxCell id="jPJBBv1Qbxkllbum_l7b-5" value="" style="endArrow=classic;html=1;rounded=0;" edge="1" parent="1">
          <mxGeometry width="50" height="50" relative="1" as="geometry">
            <mxPoint x="147" y="200" as="sourcePoint" />
            <mxPoint x="371" y="200" as="targetPoint" />
          </mxGeometry>
        </mxCell>
        <mxCell id="jPJBBv1Qbxkllbum_l7b-6" value="login()" style="text;html=1;align=center;verticalAlign=middle;resizable=0;points=[];autosize=1;strokeColor=none;fillColor=none;" vertex="1" parent="1">
          <mxGeometry x="221" y="178" width="60" height="30" as="geometry" />
        </mxCell>
        <mxCell id="jPJBBv1Qbxkllbum_l7b-10" value="" style="endArrow=none;html=1;rounded=0;dashed=1;" edge="1" parent="1" source="jPJBBv1Qbxkllbum_l7b-17">
          <mxGeometry relative="1" as="geometry">
            <mxPoint x="141" y="115" as="sourcePoint" />
            <mxPoint x="141" y="540" as="targetPoint" />
            <Array as="points">
              <mxPoint x="141" y="145" />
            </Array>
          </mxGeometry>
        </mxCell>
        <mxCell id="jPJBBv1Qbxkllbum_l7b-11" value="" style="endArrow=none;html=1;rounded=0;dashed=1;" edge="1" parent="1" source="jPJBBv1Qbxkllbum_l7b-41">
          <mxGeometry relative="1" as="geometry">
            <mxPoint x="371" y="140" as="sourcePoint" />
            <mxPoint x="370" y="540" as="targetPoint" />
          </mxGeometry>
        </mxCell>
        <mxCell id="jPJBBv1Qbxkllbum_l7b-12" value="" style="endArrow=none;html=1;rounded=0;dashed=1;" edge="1" parent="1" target="jPJBBv1Qbxkllbum_l7b-13">
          <mxGeometry relative="1" as="geometry">
            <mxPoint x="371" y="140" as="sourcePoint" />
            <mxPoint x="371" y="282" as="targetPoint" />
          </mxGeometry>
        </mxCell>
        <mxCell id="jPJBBv1Qbxkllbum_l7b-13" value="" style="rounded=0;whiteSpace=wrap;html=1;" vertex="1" parent="1">
          <mxGeometry x="366" y="198" width="10" height="42" as="geometry" />
        </mxCell>
        <mxCell id="jPJBBv1Qbxkllbum_l7b-14" value="Loop" style="shape=umlFrame;whiteSpace=wrap;html=1;pointerEvents=0;" vertex="1" parent="1">
          <mxGeometry x="30" y="150" width="369" height="99" as="geometry" />
        </mxCell>
        <mxCell id="jPJBBv1Qbxkllbum_l7b-19" value="" style="endArrow=none;html=1;rounded=0;dashed=1;" edge="1" parent="1" target="jPJBBv1Qbxkllbum_l7b-17">
          <mxGeometry relative="1" as="geometry">
            <mxPoint x="141" y="115" as="sourcePoint" />
            <mxPoint x="141" y="585" as="targetPoint" />
            <Array as="points" />
          </mxGeometry>
        </mxCell>
        <mxCell id="jPJBBv1Qbxkllbum_l7b-17" value="" style="rounded=0;whiteSpace=wrap;html=1;" vertex="1" parent="1">
          <mxGeometry x="136" y="140" width="10" height="380" as="geometry" />
        </mxCell>
        <mxCell id="jPJBBv1Qbxkllbum_l7b-20" value="[isAuthorized != 0]" style="text;html=1;align=center;verticalAlign=middle;resizable=0;points=[];autosize=1;strokeColor=none;fillColor=default;" vertex="1" parent="1">
          <mxGeometry x="101" y="160" width="120" height="30" as="geometry" />
        </mxCell>
        <mxCell id="jPJBBv1Qbxkllbum_l7b-23" value="editProfile()" style="text;html=1;align=center;verticalAlign=middle;resizable=0;points=[];autosize=1;strokeColor=none;fillColor=none;" vertex="1" parent="1">
          <mxGeometry x="190" y="298" width="80" height="30" as="geometry" />
        </mxCell>
        <mxCell id="jPJBBv1Qbxkllbum_l7b-24" value="" style="endArrow=classic;html=1;rounded=0;entryX=-0.055;entryY=0.102;entryDx=0;entryDy=0;entryPerimeter=0;" edge="1" parent="1" target="jPJBBv1Qbxkllbum_l7b-33">
          <mxGeometry width="50" height="50" relative="1" as="geometry">
            <mxPoint x="146" y="318" as="sourcePoint" />
            <mxPoint x="450" y="318" as="targetPoint" />
          </mxGeometry>
        </mxCell>
        <mxCell id="jPJBBv1Qbxkllbum_l7b-25" value="Loop" style="shape=umlFrame;whiteSpace=wrap;html=1;pointerEvents=0;" vertex="1" parent="1">
          <mxGeometry x="30" y="260" width="630" height="140" as="geometry" />
        </mxCell>
        <mxCell id="jPJBBv1Qbxkllbum_l7b-30" value="[isValid !=0]" style="text;html=1;align=center;verticalAlign=middle;resizable=0;points=[];autosize=1;strokeColor=none;fillColor=default;" vertex="1" parent="1">
          <mxGeometry x="40" y="290" width="80" height="30" as="geometry" />
        </mxCell>
        <mxCell id="jPJBBv1Qbxkllbum_l7b-31" value=":EditedProfile" style="whiteSpace=wrap;html=1;align=center;" vertex="1" parent="1">
          <mxGeometry x="430" y="270" width="100" height="30" as="geometry" />
        </mxCell>
        <mxCell id="jPJBBv1Qbxkllbum_l7b-32" value="" style="endArrow=none;html=1;rounded=0;dashed=1;" edge="1" parent="1" source="jPJBBv1Qbxkllbum_l7b-33">
          <mxGeometry relative="1" as="geometry">
            <mxPoint x="479.65999999999997" y="310" as="sourcePoint" />
            <mxPoint x="480" y="540" as="targetPoint" />
          </mxGeometry>
        </mxCell>
        <mxCell id="jPJBBv1Qbxkllbum_l7b-34" value="" style="endArrow=none;html=1;rounded=0;dashed=1;exitX=0.5;exitY=1;exitDx=0;exitDy=0;" edge="1" parent="1" source="jPJBBv1Qbxkllbum_l7b-31" target="jPJBBv1Qbxkllbum_l7b-33">
          <mxGeometry relative="1" as="geometry">
            <mxPoint x="479.65999999999997" y="310" as="sourcePoint" />
            <mxPoint x="480" y="610" as="targetPoint" />
          </mxGeometry>
        </mxCell>
        <mxCell id="jPJBBv1Qbxkllbum_l7b-36" style="edgeStyle=orthogonalEdgeStyle;rounded=0;orthogonalLoop=1;jettySize=auto;html=1;exitX=0;exitY=0.5;exitDx=0;exitDy=0;entryX=1;entryY=0.5;entryDx=0;entryDy=0;dashed=1;" edge="1" parent="1" source="jPJBBv1Qbxkllbum_l7b-33" target="jPJBBv1Qbxkllbum_l7b-35">
          <mxGeometry relative="1" as="geometry" />
        </mxCell>
        <mxCell id="jPJBBv1Qbxkllbum_l7b-33" value="" style="rounded=0;whiteSpace=wrap;html=1;" vertex="1" parent="1">
          <mxGeometry x="475" y="310" width="10" height="80" as="geometry" />
        </mxCell>
        <mxCell id="jPJBBv1Qbxkllbum_l7b-35" value="" style="rounded=0;whiteSpace=wrap;html=1;" vertex="1" parent="1">
          <mxGeometry x="366" y="329" width="10" height="42" as="geometry" />
        </mxCell>
        <mxCell id="jPJBBv1Qbxkllbum_l7b-37" value="checkIsValid()" style="text;html=1;align=center;verticalAlign=middle;resizable=0;points=[];autosize=1;strokeColor=none;fillColor=none;" vertex="1" parent="1">
          <mxGeometry x="375" y="328" width="100" height="30" as="geometry" />
        </mxCell>
        <mxCell id="jPJBBv1Qbxkllbum_l7b-39" value="" style="edgeStyle=none;orthogonalLoop=1;jettySize=auto;html=1;rounded=0;dashed=1;entryX=1.017;entryY=0.632;entryDx=0;entryDy=0;entryPerimeter=0;" edge="1" parent="1" target="jPJBBv1Qbxkllbum_l7b-17">
          <mxGeometry width="100" relative="1" as="geometry">
            <mxPoint x="475" y="380" as="sourcePoint" />
            <mxPoint x="254" y="380" as="targetPoint" />
            <Array as="points" />
          </mxGeometry>
        </mxCell>
        <mxCell id="jPJBBv1Qbxkllbum_l7b-40" value="newUserInformations" style="text;html=1;align=center;verticalAlign=middle;resizable=0;points=[];autosize=1;strokeColor=none;fillColor=none;" vertex="1" parent="1">
          <mxGeometry x="160" y="358" width="140" height="30" as="geometry" />
        </mxCell>
        <mxCell id="jPJBBv1Qbxkllbum_l7b-42" value="" style="endArrow=none;html=1;rounded=0;dashed=1;" edge="1" parent="1" source="jPJBBv1Qbxkllbum_l7b-13" target="jPJBBv1Qbxkllbum_l7b-41">
          <mxGeometry relative="1" as="geometry">
            <mxPoint x="371" y="240" as="sourcePoint" />
            <mxPoint x="371" y="610" as="targetPoint" />
          </mxGeometry>
        </mxCell>
        <mxCell id="jPJBBv1Qbxkllbum_l7b-41" value="" style="rounded=0;whiteSpace=wrap;html=1;" vertex="1" parent="1">
          <mxGeometry x="365" y="430" width="10" height="60" as="geometry" />
        </mxCell>
        <mxCell id="jPJBBv1Qbxkllbum_l7b-43" value="" style="endArrow=classic;html=1;rounded=0;entryX=-0.121;entryY=0.332;entryDx=0;entryDy=0;entryPerimeter=0;" edge="1" parent="1">
          <mxGeometry width="50" height="50" relative="1" as="geometry">
            <mxPoint x="146" y="439.74" as="sourcePoint" />
            <mxPoint x="364.78999999999996" y="439.65999999999997" as="targetPoint" />
            <Array as="points">
              <mxPoint x="260" y="439.74" />
            </Array>
          </mxGeometry>
        </mxCell>
        <mxCell id="jPJBBv1Qbxkllbum_l7b-44" value="savesTheChanges()" style="text;html=1;align=center;verticalAlign=middle;resizable=0;points=[];autosize=1;strokeColor=none;fillColor=none;" vertex="1" parent="1">
          <mxGeometry x="165" y="418" width="130" height="30" as="geometry" />
        </mxCell>
        <mxCell id="jPJBBv1Qbxkllbum_l7b-45" value="" style="edgeStyle=none;orthogonalLoop=1;jettySize=auto;html=1;rounded=0;dashed=1;" edge="1" parent="1">
          <mxGeometry width="100" relative="1" as="geometry">
            <mxPoint x="360" y="469" as="sourcePoint" />
            <mxPoint x="145.5" y="469.31" as="targetPoint" />
            <Array as="points" />
          </mxGeometry>
        </mxCell>
        <mxCell id="jPJBBv1Qbxkllbum_l7b-46" value="feedback" style="text;html=1;align=center;verticalAlign=middle;resizable=0;points=[];autosize=1;strokeColor=none;fillColor=none;" vertex="1" parent="1">
          <mxGeometry x="205" y="448" width="70" height="30" as="geometry" />
        </mxCell>
      </root>
    </mxGraphModel>
  </diagram>
</mxfile>
